<?xml version="1.0" standalone="no"?>
<!DOCTYPE svg PUBLIC "-//W3C//DTD SVG 20010904//EN"
 "http://www.w3.org/TR/2001/REC-SVG-20010904/DTD/svg10.dtd">
<svg version="1.0" xmlns="http://www.w3.org/2000/svg"
 width="1280.000000pt" height="1098.000000pt" viewBox="0 0 1280.000000 1098.000000"
 preserveAspectRatio="xMidYMid meet">
<g transform="translate(0.000000,1098.000000) scale(0.100000,-0.100000)"
fill="#000000" stroke="none">
<path d="M6185 10421 c-59 -10 -163 -49 -258 -99 -165 -85 -260 -234 -292
-455 -25 -167 12 -348 119 -584 41 -91 66 -181 66 -236 0 -54 -39 -116 -98
-154 -67 -44 -336 -174 -522 -252 -41 -18 -93 -40 -115 -50 -22 -11 -51 -22
-65 -26 -14 -4 -72 -30 -130 -57 -58 -28 -175 -78 -260 -113 -85 -35 -209 -88
-275 -118 -66 -29 -160 -71 -210 -91 -49 -21 -115 -49 -147 -62 -67 -29 -226
-85 -355 -125 -105 -32 -128 -42 -161 -73 -38 -34 -52 -71 -58 -154 -7 -89 -2
-113 61 -282 50 -135 61 -204 34 -223 -9 -7 -44 -18 -78 -26 -34 -7 -71 -23
-85 -36 -25 -23 -46 -80 -46 -127 0 -29 28 -108 39 -108 3 -1 24 -16 46 -35
l39 -34 -27 -27 c-28 -28 -57 -107 -57 -155 0 -39 16 -76 51 -120 31 -40 39
-43 202 -70 l67 -11 0 -302 c-1 -304 2 -387 20 -641 17 -231 18 -244 36 -400
28 -258 20 -340 -40 -403 -46 -50 -81 -65 -138 -60 -40 4 -57 12 -90 44 -42
41 -100 151 -136 259 -11 33 -31 85 -45 115 -14 31 -46 123 -72 205 -26 83
-51 155 -55 160 -4 6 -20 55 -35 110 -15 55 -36 116 -45 135 -10 19 -25 58
-33 85 -51 172 -251 568 -330 654 -13 14 -53 71 -89 126 -85 130 -194 271
-285 366 -108 113 -228 169 -360 169 -95 0 -282 -37 -558 -111 -121 -33 -334
-122 -401 -167 -104 -72 -184 -163 -184 -209 0 -46 80 -110 170 -138 60 -19
313 -131 398 -177 196 -106 306 -207 428 -394 96 -149 151 -278 198 -469 40
-160 44 -466 11 -850 -8 -93 -19 -258 -25 -366 -6 -107 -17 -258 -25 -335 -17
-157 -19 -357 -5 -454 5 -36 11 -94 14 -130 25 -297 66 -401 252 -648 102
-135 189 -218 389 -372 173 -133 228 -174 443 -321 40 -28 82 -65 93 -82 23
-38 25 -94 4 -144 -8 -19 -15 -45 -15 -56 0 -11 -4 -34 -9 -51 -5 -17 -19 -64
-31 -104 -30 -103 -117 -282 -185 -381 -31 -47 -63 -102 -71 -124 -21 -59 -9
-115 35 -155 24 -22 36 -42 37 -62 2 -39 41 -99 73 -112 78 -31 259 -59 476
-73 127 -8 266 -19 310 -24 236 -28 530 -50 820 -61 143 -6 352 -15 465 -20
378 -18 929 -22 2280 -16 285 1 568 12 1480 56 358 18 705 47 908 76 59 9 130
59 169 119 52 82 73 105 122 130 69 34 149 52 295 65 239 21 293 39 378 126
58 60 68 76 92 149 21 64 20 85 -5 175 -23 85 -56 146 -109 204 -47 51 -123
170 -138 215 -20 58 -15 104 17 148 38 52 86 90 261 205 80 52 184 123 230
156 47 34 136 99 199 144 62 46 135 101 161 123 26 22 74 61 106 87 85 68 116
98 250 239 120 126 214 239 214 256 0 5 14 22 31 39 77 72 203 294 304 534
148 354 135 313 172 540 24 148 27 190 27 410 -1 275 -23 476 -69 630 -44 151
-222 490 -330 630 -72 94 -329 335 -450 422 -64 46 -342 189 -420 216 -57 19
-167 49 -315 85 -36 9 -114 21 -175 27 -97 10 -128 9 -260 -9 -263 -36 -303
-44 -485 -98 -71 -21 -259 -110 -335 -158 -33 -21 -113 -81 -178 -134 -195
-159 -210 -172 -251 -202 -43 -32 -102 -47 -118 -31 -6 6 -13 42 -15 79 -2 37
-13 113 -24 167 -10 54 -19 120 -19 147 0 52 0 52 79 64 56 9 126 40 151 67
26 28 26 82 0 131 -18 34 -19 43 -8 73 11 32 10 36 -14 61 l-26 26 19 44 c17
39 18 53 9 110 -16 100 -38 132 -108 164 -23 11 -67 25 -98 31 -54 11 -55 11
-48 41 3 17 29 69 58 116 51 86 51 86 50 171 0 105 -24 171 -91 255 -57 69
-145 118 -301 164 -134 40 -239 76 -359 122 -56 21 -107 39 -113 39 -6 0 -29
9 -51 20 -22 11 -101 45 -177 74 -242 95 -342 140 -607 276 -143 74 -287 147
-320 163 -33 16 -67 33 -75 38 -8 5 -53 30 -100 56 -112 62 -172 106 -205 149
-25 33 -27 41 -23 106 5 59 14 86 56 171 132 262 173 425 152 605 -23 208 -52
274 -170 392 -95 95 -164 137 -279 169 -84 23 -222 34 -296 22z m4730 -4641
c147 -39 289 -118 424 -236 209 -183 324 -489 324 -859 0 -302 -111 -641 -300
-917 -65 -93 -272 -311 -408 -427 -163 -140 -400 -308 -562 -398 -183 -103
-248 -143 -341 -209 -57 -41 -107 -74 -111 -74 -4 0 -25 -15 -47 -33 -33 -29
-71 -56 -142 -102 -9 -5 -66 -43 -128 -83 -62 -39 -114 -72 -117 -72 -13 0
-61 125 -88 230 -17 63 -38 144 -49 180 -27 97 -112 495 -131 615 -5 33 -16
103 -23 155 -8 52 -21 138 -30 190 -32 207 -58 427 -54 470 l3 45 60 -1 c67 0
108 -16 225 -88 105 -65 155 -79 281 -80 100 0 109 1 175 34 107 52 190 148
230 266 12 35 15 70 12 127 -4 70 -10 89 -61 190 -30 62 -80 146 -110 188 -68
92 -117 198 -124 264 -7 72 20 175 68 257 115 196 348 340 629 389 84 14 308
3 395 -21z"/>
</g>
</svg>
